[center][img]http://img29.imageshack.us/img29/9830/postergreenhornet.jpg[/img]



[img]http://leetleech.org/images/48874973695367351744.png[/img]


Format                           : AVI
Format/Info                      : Audio Video Interleave
File size                        : 1.86 GiB
Duration                         : 1h 51mn
Overall bit rate                 : 2 391 Kbps
Writing application              : VirtualDubMod 1.5.10.2 (build 2540/release)
Writing library                  : VirtualDub build 32839/release

Video
ID                               : 0
Format                           : MPEG-4 Visual
Format profile                   : Advanced Simple@L5
Format settings, BVOP            : Yes
Format settings, QPel            : No
Format settings, GMC             : No warppoints
Format settings, Matrix          : Custom
Codec ID                         : XVID
Codec ID/Hint                    : XviD
Duration                         : 1h 51mn
Bit rate                         : 1 934 Kbps
Width                            : 720 pixels
Height                           : 304 pixels
Display aspect ratio             : 2.35:1
Frame rate                       : 25.000 fps
Color space                      : YUV
Chroma subsampling               : 4:2:0
Bit depth                        : 8 bits
Scan type                        : Progressive
Bits/(Pixel*Frame)               : 0.353
Stream size                      : 1.50 GiB (81%)
Writing library                  : XviD 1.2.1 (UTC 2008-12-04)

Audio
ID                               : 1
Format                           : AC-3
Format/Info                      : Audio Coding 3
Mode extension                   : CM (complete main)
Codec ID                         : 2000
Duration                         : 1h 51mn
Bit rate mode                    : Constant
Bit rate                         : 448 Kbps
Channel(s)                       : 6 channels
Channel positions                : Front: L C R, Side: L R, LFE
Sampling rate                    : 48.0 KHz
Bit depth                        : 16 bits
Stream size                      : 356 MiB (19%)
Alignment                        : Split accross interleaves
Interleave, duration             : 40 ms (1.00 video frame)
Interleave, preload duration     : 500 ms




[url]http://www.imdb.com/title/tt0990407/[/url]




[IMG]http://leetleech.org/images/89524873606771859129.png[/IMG]


Storyline

Playboy Britt Reid (Seth Rogen) becomes the new publisher of Los Angeles\' \"The Daily Sentinel\" after the sudden death of his father. Britt\'s party life is about to change when he and his driver and kung fu expert, Kato (Jay Chou), stop a robbery. With the help of Kato, Britt starts a new career of fighting crime as the masked superhero \"The Green Hornet\". 


Users: 6.5/10 (15,987 votes) 246 reviews | Critics: 255 reviews Metascore: 39/100 (based on 39 reviews from Metacritic.com)


Director:
Michel Gondry
Writers:
Seth Rogen, Evan Goldberg, and 1 more credit »
Stars:
Seth Rogen, Jay Chou and Christoph Waltz




[img]http://leetleech.org/images/95521316153253938506.png[/img]




[img]http://img228.imageshack.us/img228/6536/vlcsnap2011022521h47m33.png[/img]

[img]http://img17.imageshack.us/img17/8607/vlcsnap2011022521h45m01.png[/img]

[img]http://img195.imageshack.us/img195/7964/vlcsnap2011022521h46m06.png[/img]

[img]http://img171.imageshack.us/img171/9184/vlcsnap2011022521h47m23.png[/img]


Video Source:: ....ELEKTRI4KA.....Thanks
Audio Source:: ....TOXiCiNK ......Thanks

Changed the rgb ,sharpened ,brightness/contrast and saturation level 

Enjoy




Greetz to Imagine ,Flawl3ss ,Santi ,Vision ,Kingdom, BDK, TOXiC, iNK, THC, Ez, Rx,





[img]http://img411.imageshack.us/img411/6898/sig1n.jpg[/img]




